<svg xmlns="http://www.w3.org/2000/svg" xmlns:xlink="http://www.w3.org/1999/xlink" version="1.1" width="232.9136pt" height="226.93415pt" viewBox="0 0 232.9136 226.93415">
<defs>
<clipPath id="clip_1">
<path transform="matrix(2.7777777,0,0,-2.7777777,0,226.93415)" d="M0 81.696H83.849V0H0Z"/>
</clipPath>
</defs>
<g id="layer_1" data-name="Layer 1">
<g clip-path="url(#clip_1)">
<path transform="matrix(2.7777777,0,0,-2.7777777,36.23222,47.249158)" d="M0 0C-1.361 0-2.721 .34-3.94 .992-5.839 2.041-7.228 3.798-7.852 5.896-8.476 7.994-8.22 10.205-7.172 12.132-5.726 14.74-2.976 16.384 .028 16.384 1.389 16.384 2.75 16.016 3.94 15.364 7.909 13.181 9.354 8.192 7.2 4.224 5.754 1.616 3.005 0 0 0" fill="#818485"/>
<path transform="matrix(2.7777777,0,0,-2.7777777,107.88583,143.39083)" d="M0 0V.397C-2.438 .397-4.876 1.02-7.03 2.183-10.431 4.082-12.926 7.172-14.003 10.913-14.4 12.274-14.598 13.663-14.598 15.024-14.598 17.461-14.003 19.843-12.784 22.025-10.233 26.702-5.329 29.622 .028 29.622 2.466 29.622 4.904 28.998 7.058 27.808 11.877 25.143 14.627 20.126 14.627 14.967 14.627 12.586 14.031 10.205 12.813 7.965 10.261 3.288 5.329 .397 0 .397V0-.368C5.613-.368 10.772 2.693 13.493 7.597 14.769 9.95 15.392 12.472 15.392 14.967 15.392 20.409 12.501 25.682 7.398 28.46 5.159 29.707 2.608 30.387 .028 30.387-5.584 30.387-10.772 27.326-13.465 22.394-14.712 20.098-15.364 17.575-15.364 15.024-15.364 13.578-15.165 12.132-14.74 10.715-13.606 6.775-10.97 3.515-7.398 1.531-5.131 .283-2.58-.368 0-.368Z" fill="#818485"/>
<path transform="matrix(2.7777777,0,0,-2.7777777,210.09055,107.24915)" d="M0 0C-1.361 0-2.721 .34-3.912 1.02-5.839 2.069-7.228 3.798-7.852 5.896-8.447 7.994-8.22 10.233-7.172 12.132-5.726 14.769-2.976 16.384 .028 16.384 1.389 16.384 2.75 16.044 3.969 15.364 5.868 14.315 7.285 12.586 7.88 10.488 8.504 8.391 8.249 6.18 7.2 4.252 5.754 1.644 3.005 0 0 0" fill="#818485"/>
<path transform="matrix(2.7777777,0,0,-2.7777777,72.21666,226.93415)" d="M0 0C-1.361 0-2.721 .369-3.94 1.02-5.839 2.069-7.257 3.798-7.852 5.924-8.476 8.022-8.22 10.233-7.172 12.132-5.726 14.769-2.976 16.384 0 16.384 1.389 16.384 2.75 16.044 3.94 15.364 7.909 13.209 9.354 8.22 7.2 4.252 5.754 1.644 3.005 0 0 0" fill="#818485"/>
<path transform="matrix(2.7777777,0,0,-2.7777777,180.48415,173.3122)" d="M0 0V0C-.709-1.02-1.644-1.956-2.608-2.778-2.863-3.005-3.118-3.26-3.373-3.43L-4.167-3.997C-4.706-4.337-5.272-4.706-5.868-4.989-8.22-6.236-10.942-6.888-13.748-7.087-15.137-7.172-16.526-7.143-17.915-7.002-15.25-5.017-12.813-2.636-10.658-.028-9.666 1.191-8.759 2.438-7.88 3.742-6.633 4.394-5.357 5.159-4.025 6.009-1.417 7.71 1.304 9.836 3.798 12.586 3.77 10.658 3.572 8.674 3.09 6.718 2.523 4.365 1.502 2.041 0 0M-30.699-3.118V-3.118C-31.124-2.891-31.55-2.636-32.003-2.409-31.266-2.381-30.557-2.353-29.906-2.324-27.128-2.154-24.945-1.814-23.471-1.559-22.025-1.247-21.26-1.105-21.26-1.105L-19.049-.567C-17.603-.17-15.506 .425-12.926 1.446-12.019 1.786-11.083 2.211-10.091 2.665-10.573 1.984-11.055 1.332-11.565 .68-13.805-2.183-16.469-4.762-19.389-6.831-23.216-6.236-27.071-4.932-30.699-3.118M-39.657-.142V-.142C-43.257 .454-47.31 1.531-51.25 3.6-52.498 7.398-52.98 11.083-53.093 14.4-53.121 15.165-53.121 15.931-53.121 16.668-52.753 15.987-52.356 15.335-51.959 14.655-51.109 13.323-50.258 12.019-49.294 10.743-48.359 9.468-47.339 8.22-46.318 7.058-44.192 4.677-41.896 2.466-39.43 .482-39.061 .198-38.693-.057-38.353-.34-38.778-.283-39.203-.227-39.657-.142M-61.427 13.833V13.833C-61.965 14.995-62.306 16.243-62.561 17.49-62.617 17.83-62.702 18.198-62.731 18.51L-62.816 19.446C-62.844 20.098-62.872 20.778-62.844 21.43-62.731 24.094-61.937 26.787-60.69 29.31-60.094 30.557-59.357 31.72-58.535 32.882-58.167 29.565-57.317 26.277-56.126 23.102-55.587 21.657-54.964 20.211-54.255 18.794-54.312 17.405-54.312 15.931-54.227 14.343-54.057 11.254-53.575 7.824-52.441 4.28-54.113 5.272-55.701 6.435-57.175 7.824-58.904 9.496-60.435 11.509-61.427 13.833M-48.784 41.981V41.981C-48.387 42.265-47.962 42.52-47.537 42.775-47.877 42.123-48.217 41.499-48.501 40.904-49.748 38.409-50.542 36.369-51.052 34.98-51.506 33.562-51.761 32.825-51.761 32.825L-52.413 30.614C-52.809 29.197-53.32 27.071-53.717 24.321-53.858 23.386-54 22.365-54.085 21.26-54.425 22.025-54.765 22.762-55.077 23.528-56.438 26.901-57.345 30.472-57.657 34.016-55.247 37.077-52.186 39.77-48.784 41.981M-41.726 48.274V48.274C-39.43 51.109-36.454 54.057-32.683 56.438-28.8 55.644-25.342 54.198-22.422 52.668-21.742 52.299-21.09 51.902-20.466 51.534-21.231 51.562-21.997 51.534-22.762 51.534-24.321 51.477-25.909 51.364-27.496 51.165-29.055 50.995-30.643 50.74-32.173 50.428-35.32 49.805-38.353 48.898-41.301 47.764-41.726 47.594-42.151 47.424-42.548 47.225-42.293 47.594-42.009 47.934-41.726 48.274M-26.079 59.443V59.443C-23.754 60.123-21.26 60.435-18.737 60.151-17.49 60.038-16.214 59.698-14.995 59.272-14.683 59.159-14.343 59.046-14.06 58.932L-13.181 58.535C-12.614 58.224-12.019 57.94-11.452 57.572-9.213 56.126-7.257 54.113-5.698 51.761-4.932 50.627-4.28 49.38-3.685 48.104-6.746 49.436-10.035 50.372-13.351 50.91-14.91 51.165-16.469 51.335-18.028 51.449-19.219 52.186-20.494 52.923-21.912 53.66-24.661 55.049-27.893 56.353-31.493 57.146-29.82 58.082-28.006 58.904-26.079 59.443M-.68 35.121V35.121C-.652 34.639-.652 34.129-.624 33.647-1.02 34.271-1.389 34.866-1.757 35.405-3.317 37.729-4.677 39.43-5.641 40.592-6.605 41.698-7.115 42.265-7.115 42.265L-7.143 42.293-8.702 43.937C-9.751 44.986-11.339 46.488-13.521 48.217-14.258 48.813-15.08 49.436-15.959 50.06-15.165 50.003-14.343 49.918-13.55 49.776-9.921 49.266-6.378 48.274-3.146 46.772-1.701 43.143-.907 39.146-.68 35.121M-34.951-.652V-.652C-36.142 .113-37.276 .907-38.409 1.786-40.819 3.657-43.115 5.783-45.184 8.022-46.261 9.213-47.254 10.346-48.189 11.594-49.153 12.784-50.003 14.088-50.854 15.364-51.619 16.583-52.356 17.83-53.008 19.106-52.894 20.948-52.696 22.62-52.441 24.123-51.987 26.787-51.42 28.857-51.024 30.246-50.627 31.578-50.4 32.315-50.372 32.343-50.343 32.4-50.088 33.137-49.606 34.469-49.096 35.802-48.302 37.786-47.055 40.167-46.346 41.499-45.524 42.945-44.532 44.447-43.285 45.099-42.009 45.695-40.706 46.233-37.871 47.395-34.894 48.331-31.89 48.983-30.359 49.323-28.857 49.606-27.326 49.805-25.795 50.032-24.236 50.145-22.706 50.23-21.26 50.287-19.814 50.287-18.397 50.23-16.838 49.209-15.506 48.161-14.343 47.197-12.246 45.468-10.743 43.965-9.751 42.945-8.787 41.896-8.277 41.357-8.249 41.301-8.192 41.272-7.71 40.677-6.803 39.6-5.896 38.495-4.592 36.794-3.146 34.526-2.324 33.279-1.502 31.805-.68 30.189-.737 28.8-.879 27.383-1.049 25.994-1.474 22.961-2.154 19.928-3.061 16.98-4.025 14.003-5.187 11.169-6.605 8.419-7.257 7.143-7.994 5.896-8.759 4.677-10.403 3.855-11.962 3.203-13.38 2.665-15.931 1.729-17.972 1.162-19.389 .822-20.75 .51-21.487 .34-21.543 .34-21.6 .34-22.365 .198-23.754-.057-25.172-.283-27.269-.567-29.991-.68-31.465-.737-33.137-.765-34.951-.652M1.247 25.88V25.88C2.523 22.45 3.6 18.397 3.77 13.946 1.134 10.97-1.843 8.702-4.62 6.945-5.301 6.548-5.953 6.18-6.576 5.811-6.18 6.463-5.811 7.143-5.443 7.795-3.94 10.573-2.665 13.521-1.672 16.526-.68 19.531 .085 22.62 .567 25.767 .652 26.192 .68 26.646 .737 27.099 .907 26.702 1.077 26.277 1.247 25.88M10.063 23.216C9.78 23.244 9.496 23.272 9.241 23.329 9.043 22.677 8.787 22.025 8.532 21.402 7.795 19.502 6.746 17.83 5.613 16.271 5.159 20.098 4.139 23.556 2.948 26.532 2.353 27.978 1.729 29.339 1.077 30.586 1.162 32.117 1.191 33.676 1.134 35.206 1.077 36.765 .907 38.353 .68 39.883 .425 41.443 .142 42.973-.283 44.447-.397 44.787-.51 45.128-.595 45.468 .595 44.759 1.729 43.994 2.778 43.143 4.082 42.066 5.272 40.876 6.293 39.572 6.548 39.742 6.803 39.855 7.087 39.997 6.009 41.414 4.762 42.69 3.373 43.852 2.013 44.986 .51 45.95-1.049 46.8-1.814 48.954-2.806 50.995-4.025 52.895-5.698 55.446-7.795 57.685-10.318 59.329-10.942 59.754-11.594 60.094-12.246 60.435L-13.294 60.917C-13.635 61.087-13.946 61.172-14.258 61.285-15.676 61.795-17.065 62.135-18.51 62.277-21.345 62.589-24.123 62.249-26.674 61.483-29.225 60.775-31.493 59.584-33.562 58.309-33.902 58.11-34.214 57.883-34.526 57.657-36.794 57.94-39.203 57.997-41.641 57.657-42.406 57.543-43.172 57.402-43.937 57.203-43.824 56.948-43.71 56.693-43.625 56.438-42.917 56.608-42.236 56.75-41.528 56.835-39.515 57.118-37.531 57.09-35.603 56.891-38.721 54.567-41.187 51.931-43.172 49.408-44.135 48.189-44.986 46.97-45.751 45.78-47.112 45.099-48.472 44.334-49.776 43.512-51.109 42.69-52.384 41.754-53.603 40.791-54.822 39.798-55.984 38.778-57.061 37.672-57.317 37.417-57.543 37.162-57.77 36.907-57.77 38.296-57.685 39.657-57.458 40.989-57.203 42.661-56.75 44.306-56.126 45.836L-56.154 45.865C-56.409 46.006-56.636 46.148-56.891 46.29-57.572 44.674-58.082 42.917-58.394 41.131-58.677 39.402-58.791 37.616-58.762 35.802-60.208 34.072-61.483 32.202-62.504 30.217-63.865 27.496-64.772 24.548-64.942 21.543-64.998 20.806-64.97 20.069-64.942 19.304L-64.828 18.17C-64.8 17.802-64.715 17.49-64.658 17.121-64.403 15.676-63.978 14.287-63.411 12.983-62.249 10.375-60.548 8.135-58.649 6.293-56.721 4.45-54.567 3.061-52.441 1.928-52.101 1.729-51.732 1.587-51.392 1.417-50.485-.68-49.351-2.806-47.82-4.734-47.395-5.329-46.913-5.896-46.375-6.435-46.233-6.18-46.091-5.953-45.921-5.726-46.375-5.244-46.772-4.762-47.169-4.252-48.444-2.636-49.38-.907-50.173 .85-46.602-.68-43.115-1.502-39.94-1.956-38.381-2.154-36.907-2.296-35.49-2.353-34.214-3.203-32.882-3.997-31.521-4.706-30.132-5.443-28.687-6.094-27.241-6.69-25.767-7.228-24.293-7.739-22.791-8.107-22.45-8.192-22.139-8.277-21.798-8.362-22.989-9.043-24.208-9.638-25.483-10.12-27.014-10.715-28.602-11.112-30.189-11.367-30.189-11.65-30.217-11.962-30.274-12.246-28.545-12.047-26.816-11.594-25.143-10.998-23.499-10.375-21.883-9.581-20.353-8.646-18.142-9.043-15.874-9.213-13.635-9.099-10.602-8.929-7.568-8.22-4.904-6.86-4.224-6.548-3.6-6.151-2.976-5.754L-2.041-5.102C-1.729-4.876-1.502-4.649-1.219-4.422-.085-3.458 .907-2.409 1.729-1.247 3.43 1.049 4.535 3.628 5.159 6.208 5.811 8.787 5.924 11.339 5.839 13.776 5.811 14.145 5.783 14.542 5.754 14.91 7.115 16.753 8.391 18.794 9.298 21.09 9.581 21.77 9.836 22.507 10.063 23.216" fill="#818485"/>
<path transform="matrix(2.7777777,0,0,-2.7777777,112.92527,70.94999)" d="M0 0 3.997-2.296 0-4.592Z" fill="#818485"/>
<path transform="matrix(2.7777777,0,0,-2.7777777,0,226.93415)" d="M41.078 53.291H33.028V54.311H41.078Z" fill="#818485"/>
<path transform="matrix(2.7777777,0,0,-2.7777777,131.50777,99.532489)" d="M0 0H-17.83C-17.83 1.191-17.49 2.126-16.753 2.778-16.044 3.43-14.967 3.77-13.521 3.77H0Z" fill="#818485"/>
<path transform="matrix(2.7777777,0,0,-2.7777777,81.98027,116.06804)" d="M0 0C0-1.02 .425-1.899 1.247-2.665 2.098-3.402 3.232-3.77 4.62-3.77H17.83V0H6.038V4.819H0Z" fill="#818485"/>
<path transform="matrix(2.7777777,0,0,-2.7777777,29.775555,13.233333)" d="M0 0C0-.595-.454-1.049-1.049-1.049-1.616-1.049-2.098-.595-2.098 0-2.098 .567-1.616 1.049-1.049 1.049-.454 1.049 0 .567 0 0" fill="#ffffff"/>
<path transform="matrix(2.7777777,0,0,-2.7777777,26.626109,18.666373)" d="M0 0C0-.227-.17-.397-.397-.397-.624-.397-.794-.227-.794 0-.794 .227-.624 .397-.397 .397-.17 .397 0 .227 0 0" fill="#ffffff"/>
<path transform="matrix(2.7777777,0,0,-2.7777777,54.5,17.485259)" d="M0 0C.085-.397 .113-.794 .113-1.219 .113-5.528-3.373-9.043-7.71-9.043-8.107-9.043-8.532-8.986-8.929-8.929-8.164-9.184-7.37-9.354-6.52-9.354-2.693-9.354 .425-6.236 .425-2.381 .425-1.559 .283-.737 0 0" fill="#ffffff"/>
<path transform="matrix(2.7777777,0,0,-2.7777777,202.84638,72.682209)" d="M0 0C0-.567-.482-1.049-1.049-1.049-1.644-1.049-2.098-.567-2.098 0-2.098 .595-1.644 1.049-1.049 1.049-.482 1.049 0 .595 0 0" fill="#ffffff"/>
<path transform="matrix(2.7777777,0,0,-2.7777777,199.61806,78.11527)" d="M0 0C0-.227-.17-.397-.397-.397-.595-.397-.794-.227-.794 0-.794 .227-.595 .397-.397 .397-.17 .397 0 .227 0 0" fill="#ffffff"/>
<path transform="matrix(2.7777777,0,0,-2.7777777,227.57082,76.93416)" d="M0 0C.057-.397 .113-.794 .113-1.219 .113-5.528-3.402-9.014-7.71-9.014-8.135-9.014-8.532-8.986-8.929-8.929-8.192-9.184-7.37-9.354-6.548-9.354-2.693-9.354 .425-6.236 .425-2.381 .425-1.559 .255-.737 0 0" fill="#ffffff"/>
<path transform="matrix(2.7777777,0,0,-2.7777777,64.815,192.3672)" d="M0 0C0-.595-.482-1.049-1.049-1.049-1.644-1.049-2.098-.595-2.098 0-2.098 .567-1.644 1.049-1.049 1.049-.482 1.049 0 .567 0 0" fill="#ffffff"/>
<path transform="matrix(2.7777777,0,0,-2.7777777,61.66527,197.87888)" d="M0 0C0-.198-.198-.397-.425-.397-.624-.397-.822-.198-.822 0-.822 .227-.624 .425-.425 .425-.198 .425 0 .227 0 0" fill="#ffffff"/>
<path transform="matrix(2.7777777,0,0,-2.7777777,89.53944,196.61916)" d="M0 0C.057-.397 .113-.794 .113-1.219 .113-5.528-3.402-9.043-7.71-9.043-8.135-9.043-8.532-8.986-8.929-8.929-8.192-9.213-7.37-9.354-6.548-9.354-2.693-9.354 .425-6.236 .425-2.409 .425-1.559 .283-.765 0 0" fill="#ffffff"/>
</g>
</g>
</svg>
